Normalized EMG Linear Envelopes
nRows=125
nColumns=4

endheader
time	 med_gas_r	  soleus_r	 tib_ant_r	
3.00605	  0.020632	  0.019612	  0.006266	
3.07762	  0.020435	  0.020126	  0.006026	
3.14919	  0.020291	  0.020965	  0.006041	
3.22077	  0.020561	  0.021673	  0.006167	
3.29234	  0.020916	  0.021858	  0.006352	
3.36391	  0.020536	  0.021580	  0.006327	
3.43548	  0.019809	  0.020630	  0.006211	
3.50706	  0.019544	  0.019715	  0.006240	
3.57863	  0.019943	  0.019142	  0.006426	
3.6502	  0.020665	  0.018898	  0.006715	
3.72177	  0.020898	  0.019020	  0.007003	
3.79335	  0.020384	  0.019779	  0.007261	
3.86492	  0.019644	  0.021189	  0.007372	
3.93649	  0.019572	  0.022781	  0.007359	
4.00806	  0.020366	  0.023758	  0.007285	
4.07964	  0.021387	  0.023738	  0.007105	
4.15121	  0.022145	  0.023146	  0.006887	
4.22278	  0.021910	  0.022811	  0.006662	
4.29435	  0.021462	  0.022203	  0.006558	
4.36593	  0.021107	  0.021405	  0.006733	
4.4375	  0.020650	  0.020926	  0.007202	
4.50907	  0.019932	  0.020889	  0.007655	
4.58065	  0.019495	  0.020965	  0.007859	
4.65222	  0.019805	  0.020736	  0.007997	
4.72379	  0.020400	  0.020516	  0.008019	
4.79536	  0.021305	  0.020370	  0.007995	
4.86694	  0.021564	  0.020135	  0.008205	
4.93851	  0.020992	  0.019924	  0.008667	
5.01008	  0.020092	  0.019951	  0.008711	
5.08165	  0.019882	  0.020318	  0.008144	
5.15323	  0.020424	  0.020593	  0.007742	
5.2248	  0.020795	  0.019594	  0.007559	
5.29637	  0.018475	  0.016055	  0.006847	
5.36794	  0.011035	  0.008997	  0.004938	
5.43952	 -0.002177	 -0.000274	  0.002125	
5.51109	 -0.015893	 -0.003236	  0.000505	
5.58266	 -0.010562	  0.021143	  0.005955	
5.65423	  0.052259	  0.106209	  0.028858	
5.72581	  0.223089	  0.278748	  0.079102	
5.79738	  0.519441	  0.503382	  0.150896	
5.86895	  0.832460	  0.632502	  0.208732	
5.94052	  0.985006	  0.643562	  0.225207	
6.0121	  0.987312	  0.640401	  0.221115	
6.08367	  0.913735	  0.638264	  0.212808	
6.15524	  0.803857	  0.594041	  0.202009	
6.22681	  0.686027	  0.542353	  0.188939	
6.29839	  0.568496	  0.499515	  0.176677	
6.36996	  0.473328	  0.447126	  0.163792	
6.44153	  0.433221	  0.407946	  0.155798	
6.5131	  0.436596	  0.382658	  0.152306	
6.58468	  0.455389	  0.367379	  0.152640	
6.65625	  0.465383	  0.358116	  0.154438	
6.72782	  0.449294	  0.362149	  0.152666	
6.7994	  0.422840	  0.377469	  0.150015	
6.87097	  0.411476	  0.394998	  0.147581	
6.94254	  0.420805	  0.407378	  0.144923	
7.01411	  0.448040	  0.414755	  0.140713	
7.08569	  0.478938	  0.424303	  0.138454	
7.15726	  0.494284	  0.436966	  0.141737	
7.22883	  0.499878	  0.450413	  0.149652	
7.3004	  0.511275	  0.449757	  0.157371	
7.37198	  0.515291	  0.442434	  0.163727	
7.44355	  0.500700	  0.430198	  0.171232	
7.51512	  0.485192	  0.407603	  0.178237	
7.58669	  0.480849	  0.401702	  0.184853	
7.65827	  0.484899	  0.402260	  0.186666	
7.72984	  0.483660	  0.413016	  0.179126	
7.80141	  0.475711	  0.428490	  0.169909	
7.87298	  0.460721	  0.432641	  0.168342	
7.94456	  0.445117	  0.429734	  0.173112	
8.01613	  0.435171	  0.439877	  0.173598	
8.0877	  0.443244	  0.456055	  0.169706	
8.15927	  0.459855	  0.456228	  0.168282	
8.23085	  0.474548	  0.443736	  0.170084	
8.30242	  0.475308	  0.418402	  0.169516	
8.37399	  0.474750	  0.401048	  0.167203	
8.44556	  0.476630	  0.394011	  0.161449	
8.51714	  0.476925	  0.403546	  0.151931	
8.58871	  0.472484	  0.416384	  0.146132	
8.66028	  0.460297	  0.435615	  0.145884	
8.73185	  0.458651	  0.464705	  0.149552	
8.80343	  0.471052	  0.501421	  0.156472	
8.875	  0.483639	  0.522314	  0.160187	
8.94657	  0.498770	  0.520101	  0.161846	
9.01815	  0.512370	  0.512443	  0.168157	
9.08972	  0.506269	  0.507145	  0.173742	
9.16129	  0.489311	  0.508955	  0.170116	
9.23286	  0.477178	  0.487044	  0.163384	
9.30444	  0.478210	  0.449797	  0.162681	
9.37601	  0.486921	  0.424013	  0.170837	
9.44758	  0.486388	  0.425534	  0.182316	
9.51915	  0.462255	  0.432893	  0.189110	
9.59073	  0.425120	  0.445874	  0.181917	
9.6623	  0.399306	  0.467898	  0.166484	
9.73387	  0.400242	  0.470929	  0.155840	
9.80544	  0.419161	  0.471737	  0.160342	
9.87702	  0.447050	  0.488732	  0.176074	
9.94859	  0.468548	  0.517654	  0.188387	
10.0202	  0.460272	  0.534294	  0.187017	
10.0917	  0.428484	  0.515843	  0.177284	
10.1633	  0.377142	  0.458769	  0.164786	
10.2349	  0.309263	  0.360682	  0.146588	
10.3065	  0.243586	  0.256585	  0.122165	
10.378	  0.187756	  0.179811	  0.095878	
10.4496	  0.138736	  0.128015	  0.073267	
10.5212	  0.090018	  0.082103	  0.054959	
10.5927	  0.050850	  0.048748	  0.045263	
10.6643	  0.029718	  0.034817	  0.041876	
10.7359	  0.022114	  0.034018	  0.037775	
10.8075	  0.021459	  0.038948	  0.032056	
10.879	  0.022852	  0.042244	  0.026760	
10.9506	  0.023730	  0.041600	  0.023524	
11.0222	  0.023504	  0.038985	  0.022168	
11.0937	  0.022122	  0.035204	  0.021281	
11.1653	  0.020246	  0.030375	  0.020079	
11.2369	  0.019191	  0.027137	  0.018913	
11.3085	  0.019545	  0.026522	  0.018056	
11.38	  0.020729	  0.026874	  0.017960	
11.4516	  0.021672	  0.026424	  0.018009	
11.5232	  0.021407	  0.025310	  0.017523	
11.5948	  0.020661	  0.024269	  0.016583	
11.6663	  0.020378	  0.024262	  0.015968	
11.7379	  0.020445	  0.025138	  0.015377	
11.8095	  0.020732	  0.025146	  0.013640	
11.881	  0.021556	  0.024452	  0.011554	
